<svg width="559" height="364" viewBox="0 0 559 364" fill="none" xmlns="http://www.w3.org/2000/svg">
<rect width="559" height="364" fill="white"/>
<path d="M131.684 62.8241L540.819 72.0629L429.938 304.644L14.9995 300.584L131.684 62.8241Z" fill="#ABABAB" fill-opacity="0.12"/>
<circle cx="49" cy="13" r="2" fill="#AFADFF"/>
<circle cx="66" cy="13" r="2" fill="#AFADFF"/>
<circle cx="49" cy="23" r="2" fill="#AFADFF"/>
<circle cx="66" cy="23" r="2" fill="#AFADFF"/>
<circle cx="82" cy="23" r="2" fill="#AFADFF"/>
<circle cx="82" cy="13" r="2" fill="#AFADFF"/>
<circle cx="49" cy="33" r="2" fill="#AFADFF"/>
<circle cx="66" cy="33" r="2" fill="#AFADFF"/>
<circle cx="49" cy="43" r="2" fill="#AFADFF"/>
<circle cx="66" cy="43" r="2" fill="#AFADFF"/>
<circle cx="82" cy="43" r="2" fill="#AFADFF"/>
<circle cx="82" cy="33" r="2" fill="#AFADFF"/>
<circle cx="49" cy="53" r="2" fill="#AFADFF"/>
<circle cx="66" cy="53" r="2" fill="#AFADFF"/>
<circle cx="49" cy="63" r="2" fill="#AFADFF"/>
<circle cx="66" cy="63" r="2" fill="#AFADFF"/>
<circle cx="82" cy="63" r="2" fill="#AFADFF"/>
<circle cx="82" cy="53" r="2" fill="#AFADFF"/>
<circle cx="49" cy="73" r="2" fill="#AFADFF"/>
<circle cx="66" cy="73" r="2" fill="#AFADFF"/>
<circle cx="49" cy="83" r="2" fill="#AFADFF"/>
<circle cx="66" cy="83" r="2" fill="#AFADFF"/>
<circle cx="82" cy="83" r="2" fill="#AFADFF"/>
<circle cx="82" cy="73" r="2" fill="#AFADFF"/>
<circle cx="49" cy="93" r="2" fill="#AFADFF"/>
<circle cx="66" cy="93" r="2" fill="#AFADFF"/>
<circle cx="49" cy="103" r="2" fill="#AFADFF"/>
<circle cx="66" cy="103" r="2" fill="#AFADFF"/>
<circle cx="82" cy="103" r="2" fill="#AFADFF"/>
<circle cx="82" cy="93" r="2" fill="#AFADFF"/>
<circle cx="49" cy="113" r="2" fill="#AFADFF"/>
<circle cx="66" cy="113" r="2" fill="#AFADFF"/>
<circle cx="49" cy="123" r="2" fill="#AFADFF"/>
<circle cx="66" cy="123" r="2" fill="#AFADFF"/>
<circle cx="82" cy="123" r="2" fill="#AFADFF"/>
<circle cx="82" cy="113" r="2" fill="#AFADFF"/>
<circle cx="98" cy="13" r="2" fill="#AFADFF"/>
<circle cx="115" cy="13" r="2" fill="#AFADFF"/>
<circle cx="98" cy="23" r="2" fill="#AFADFF"/>
<circle cx="115" cy="23" r="2" fill="#AFADFF"/>
<circle cx="131" cy="23" r="2" fill="#AFADFF"/>
<circle cx="131" cy="13" r="2" fill="#AFADFF"/>
<circle cx="98" cy="33" r="2" fill="#AFADFF"/>
<circle cx="115" cy="33" r="2" fill="#AFADFF"/>
<circle cx="98" cy="43" r="2" fill="#AFADFF"/>
<circle cx="115" cy="43" r="2" fill="#AFADFF"/>
<circle cx="131" cy="43" r="2" fill="#AFADFF"/>
<circle cx="131" cy="33" r="2" fill="#AFADFF"/>
<circle cx="98" cy="53" r="2" fill="#AFADFF"/>
<circle cx="115" cy="53" r="2" fill="#AFADFF"/>
<circle cx="98" cy="63" r="2" fill="#AFADFF"/>
<circle cx="115" cy="63" r="2" fill="#AFADFF"/>
<circle cx="131" cy="63" r="2" fill="#AFADFF"/>
<circle cx="131" cy="53" r="2" fill="#AFADFF"/>
<circle cx="98" cy="73" r="2" fill="#AFADFF"/>
<circle cx="115" cy="73" r="2" fill="#AFADFF"/>
<circle cx="98" cy="83" r="2" fill="#AFADFF"/>
<circle cx="115" cy="83" r="2" fill="#AFADFF"/>
<circle cx="131" cy="83" r="2" fill="#AFADFF"/>
<circle cx="131" cy="73" r="2" fill="#AFADFF"/>
<circle cx="98" cy="93" r="2" fill="#AFADFF"/>
<circle cx="115" cy="93" r="2" fill="#AFADFF"/>
<circle cx="98" cy="103" r="2" fill="#AFADFF"/>
<circle cx="115" cy="103" r="2" fill="#AFADFF"/>
<circle cx="131" cy="103" r="2" fill="#AFADFF"/>
<circle cx="131" cy="93" r="2" fill="#AFADFF"/>
<circle cx="98" cy="113" r="2" fill="#AFADFF"/>
<circle cx="115" cy="113" r="2" fill="#AFADFF"/>
<circle cx="98" cy="123" r="2" fill="#AFADFF"/>
<circle cx="115" cy="123" r="2" fill="#AFADFF"/>
<circle cx="131" cy="123" r="2" fill="#AFADFF"/>
<circle cx="131" cy="113" r="2" fill="#AFADFF"/>
<circle cx="147" cy="13" r="2" fill="#AFADFF"/>
<circle cx="164" cy="13" r="2" fill="#AFADFF"/>
<circle cx="147" cy="23" r="2" fill="#AFADFF"/>
<circle cx="164" cy="23" r="2" fill="#AFADFF"/>
<circle cx="180" cy="23" r="2" fill="#AFADFF"/>
<circle cx="180" cy="13" r="2" fill="#AFADFF"/>
<circle cx="147" cy="33" r="2" fill="#AFADFF"/>
<circle cx="164" cy="33" r="2" fill="#AFADFF"/>
<circle cx="147" cy="43" r="2" fill="#AFADFF"/>
<circle cx="164" cy="43" r="2" fill="#AFADFF"/>
<circle cx="180" cy="43" r="2" fill="#AFADFF"/>
<circle cx="180" cy="33" r="2" fill="#AFADFF"/>
<circle cx="147" cy="53" r="2" fill="#AFADFF"/>
<circle cx="164" cy="53" r="2" fill="#AFADFF"/>
<circle cx="147" cy="63" r="2" fill="#AFADFF"/>
<circle cx="164" cy="63" r="2" fill="#AFADFF"/>
<circle cx="180" cy="63" r="2" fill="#AFADFF"/>
<circle cx="180" cy="53" r="2" fill="#AFADFF"/>
<circle cx="147" cy="73" r="2" fill="#AFADFF"/>
<circle cx="164" cy="73" r="2" fill="#AFADFF"/>
<circle cx="147" cy="83" r="2" fill="#AFADFF"/>
<circle cx="164" cy="83" r="2" fill="#AFADFF"/>
<circle cx="180" cy="83" r="2" fill="#AFADFF"/>
<circle cx="180" cy="73" r="2" fill="#AFADFF"/>
<circle cx="147" cy="93" r="2" fill="#AFADFF"/>
<circle cx="164" cy="93" r="2" fill="#AFADFF"/>
<circle cx="147" cy="103" r="2" fill="#AFADFF"/>
<circle cx="164" cy="103" r="2" fill="#AFADFF"/>
<circle cx="180" cy="103" r="2" fill="#AFADFF"/>
<circle cx="180" cy="93" r="2" fill="#AFADFF"/>
<circle cx="147" cy="113" r="2" fill="#AFADFF"/>
<circle cx="164" cy="113" r="2" fill="#AFADFF"/>
<circle cx="147" cy="123" r="2" fill="#AFADFF"/>
<circle cx="164" cy="123" r="2" fill="#AFADFF"/>
<circle cx="180" cy="123" r="2" fill="#AFADFF"/>
<circle cx="180" cy="113" r="2" fill="#AFADFF"/>
<circle cx="196" cy="13" r="2" fill="#AFADFF"/>
<circle cx="213" cy="13" r="2" fill="#AFADFF"/>
<circle cx="196" cy="23" r="2" fill="#AFADFF"/>
<circle cx="213" cy="23" r="2" fill="#AFADFF"/>
<circle cx="229" cy="23" r="2" fill="#AFADFF"/>
<circle cx="229" cy="13" r="2" fill="#AFADFF"/>
<circle cx="196" cy="33" r="2" fill="#AFADFF"/>
<circle cx="213" cy="33" r="2" fill="#AFADFF"/>
<circle cx="196" cy="43" r="2" fill="#AFADFF"/>
<circle cx="213" cy="43" r="2" fill="#AFADFF"/>
<circle cx="229" cy="43" r="2" fill="#AFADFF"/>
<circle cx="229" cy="33" r="2" fill="#AFADFF"/>
<circle cx="196" cy="53" r="2" fill="#AFADFF"/>
<circle cx="213" cy="53" r="2" fill="#AFADFF"/>
<circle cx="196" cy="63" r="2" fill="#AFADFF"/>
<circle cx="213" cy="63" r="2" fill="#AFADFF"/>
<circle cx="229" cy="63" r="2" fill="#AFADFF"/>
<circle cx="229" cy="53" r="2" fill="#AFADFF"/>
<circle cx="196" cy="73" r="2" fill="#AFADFF"/>
<circle cx="213" cy="73" r="2" fill="#AFADFF"/>
<circle cx="196" cy="83" r="2" fill="#AFADFF"/>
<circle cx="213" cy="83" r="2" fill="#AFADFF"/>
<circle cx="229" cy="83" r="2" fill="#AFADFF"/>
<circle cx="229" cy="73" r="2" fill="#AFADFF"/>
<circle cx="196" cy="93" r="2" fill="#AFADFF"/>
<circle cx="213" cy="93" r="2" fill="#AFADFF"/>
<circle cx="196" cy="103" r="2" fill="#AFADFF"/>
<circle cx="213" cy="103" r="2" fill="#AFADFF"/>
<circle cx="229" cy="103" r="2" fill="#AFADFF"/>
<circle cx="229" cy="93" r="2" fill="#AFADFF"/>
<circle cx="196" cy="113" r="2" fill="#AFADFF"/>
<circle cx="213" cy="113" r="2" fill="#AFADFF"/>
<circle cx="196" cy="123" r="2" fill="#AFADFF"/>
<circle cx="213" cy="123" r="2" fill="#AFADFF"/>
<circle cx="229" cy="123" r="2" fill="#AFADFF"/>
<circle cx="229" cy="113" r="2" fill="#AFADFF"/>
<circle cx="332" cy="236" r="2" fill="#AFADFF"/>
<circle cx="349" cy="236" r="2" fill="#AFADFF"/>
<circle cx="332" cy="246" r="2" fill="#AFADFF"/>
<circle cx="349" cy="246" r="2" fill="#AFADFF"/>
<circle cx="365" cy="246" r="2" fill="#AFADFF"/>
<circle cx="365" cy="236" r="2" fill="#AFADFF"/>
<circle cx="332" cy="256" r="2" fill="#AFADFF"/>
<circle cx="349" cy="256" r="2" fill="#AFADFF"/>
<circle cx="332" cy="266" r="2" fill="#AFADFF"/>
<circle cx="349" cy="266" r="2" fill="#AFADFF"/>
<circle cx="365" cy="266" r="2" fill="#AFADFF"/>
<circle cx="365" cy="256" r="2" fill="#AFADFF"/>
<circle cx="332" cy="276" r="2" fill="#AFADFF"/>
<circle cx="349" cy="276" r="2" fill="#AFADFF"/>
<circle cx="332" cy="286" r="2" fill="#AFADFF"/>
<circle cx="349" cy="286" r="2" fill="#AFADFF"/>
<circle cx="365" cy="286" r="2" fill="#AFADFF"/>
<circle cx="365" cy="276" r="2" fill="#AFADFF"/>
<circle cx="332" cy="296" r="2" fill="#AFADFF"/>
<circle cx="349" cy="296" r="2" fill="#AFADFF"/>
<circle cx="332" cy="306" r="2" fill="#AFADFF"/>
<circle cx="349" cy="306" r="2" fill="#AFADFF"/>
<circle cx="365" cy="306" r="2" fill="#AFADFF"/>
<circle cx="365" cy="296" r="2" fill="#AFADFF"/>
<circle cx="332" cy="316" r="2" fill="#AFADFF"/>
<circle cx="349" cy="316" r="2" fill="#AFADFF"/>
<circle cx="332" cy="326" r="2" fill="#AFADFF"/>
<circle cx="349" cy="326" r="2" fill="#AFADFF"/>
<circle cx="365" cy="326" r="2" fill="#AFADFF"/>
<circle cx="365" cy="316" r="2" fill="#AFADFF"/>
<circle cx="332" cy="336" r="2" fill="#AFADFF"/>
<circle cx="349" cy="336" r="2" fill="#AFADFF"/>
<circle cx="332" cy="346" r="2" fill="#AFADFF"/>
<circle cx="349" cy="346" r="2" fill="#AFADFF"/>
<circle cx="365" cy="346" r="2" fill="#AFADFF"/>
<circle cx="365" cy="336" r="2" fill="#AFADFF"/>
<circle cx="381" cy="236" r="2" fill="#AFADFF"/>
<circle cx="398" cy="236" r="2" fill="#AFADFF"/>
<circle cx="381" cy="246" r="2" fill="#AFADFF"/>
<circle cx="398" cy="246" r="2" fill="#AFADFF"/>
<circle cx="414" cy="246" r="2" fill="#AFADFF"/>
<circle cx="414" cy="236" r="2" fill="#AFADFF"/>
<circle cx="381" cy="256" r="2" fill="#AFADFF"/>
<circle cx="398" cy="256" r="2" fill="#AFADFF"/>
<circle cx="381" cy="266" r="2" fill="#AFADFF"/>
<circle cx="398" cy="266" r="2" fill="#AFADFF"/>
<circle cx="414" cy="266" r="2" fill="#AFADFF"/>
<circle cx="414" cy="256" r="2" fill="#AFADFF"/>
<circle cx="381" cy="276" r="2" fill="#AFADFF"/>
<circle cx="398" cy="276" r="2" fill="#AFADFF"/>
<circle cx="381" cy="286" r="2" fill="#AFADFF"/>
<circle cx="398" cy="286" r="2" fill="#AFADFF"/>
<circle cx="414" cy="286" r="2" fill="#AFADFF"/>
<circle cx="414" cy="276" r="2" fill="#AFADFF"/>
<circle cx="381" cy="296" r="2" fill="#AFADFF"/>
<circle cx="398" cy="296" r="2" fill="#AFADFF"/>
<circle cx="381" cy="306" r="2" fill="#AFADFF"/>
<circle cx="398" cy="306" r="2" fill="#AFADFF"/>
<circle cx="414" cy="306" r="2" fill="#AFADFF"/>
<circle cx="414" cy="296" r="2" fill="#AFADFF"/>
<circle cx="381" cy="316" r="2" fill="#AFADFF"/>
<circle cx="398" cy="316" r="2" fill="#AFADFF"/>
<circle cx="381" cy="326" r="2" fill="#AFADFF"/>
<circle cx="398" cy="326" r="2" fill="#AFADFF"/>
<circle cx="414" cy="326" r="2" fill="#AFADFF"/>
<circle cx="414" cy="316" r="2" fill="#AFADFF"/>
<circle cx="381" cy="336" r="2" fill="#AFADFF"/>
<circle cx="398" cy="336" r="2" fill="#AFADFF"/>
<circle cx="381" cy="346" r="2" fill="#AFADFF"/>
<circle cx="398" cy="346" r="2" fill="#AFADFF"/>
<circle cx="414" cy="346" r="2" fill="#AFADFF"/>
<circle cx="414" cy="336" r="2" fill="#AFADFF"/>
<circle cx="430" cy="236" r="2" fill="#AFADFF"/>
<circle cx="447" cy="236" r="2" fill="#AFADFF"/>
<circle cx="430" cy="246" r="2" fill="#AFADFF"/>
<circle cx="447" cy="246" r="2" fill="#AFADFF"/>
<circle cx="463" cy="246" r="2" fill="#AFADFF"/>
<circle cx="463" cy="236" r="2" fill="#AFADFF"/>
<circle cx="430" cy="256" r="2" fill="#AFADFF"/>
<circle cx="447" cy="256" r="2" fill="#AFADFF"/>
<circle cx="430" cy="266" r="2" fill="#AFADFF"/>
<circle cx="447" cy="266" r="2" fill="#AFADFF"/>
<circle cx="463" cy="266" r="2" fill="#AFADFF"/>
<circle cx="463" cy="256" r="2" fill="#AFADFF"/>
<circle cx="430" cy="276" r="2" fill="#AFADFF"/>
<circle cx="447" cy="276" r="2" fill="#AFADFF"/>
<circle cx="430" cy="286" r="2" fill="#AFADFF"/>
<circle cx="447" cy="286" r="2" fill="#AFADFF"/>
<circle cx="463" cy="286" r="2" fill="#AFADFF"/>
<circle cx="463" cy="276" r="2" fill="#AFADFF"/>
<circle cx="430" cy="296" r="2" fill="#AFADFF"/>
<circle cx="447" cy="296" r="2" fill="#AFADFF"/>
<circle cx="430" cy="306" r="2" fill="#AFADFF"/>
<circle cx="447" cy="306" r="2" fill="#AFADFF"/>
<circle cx="463" cy="306" r="2" fill="#AFADFF"/>
<circle cx="463" cy="296" r="2" fill="#AFADFF"/>
<circle cx="430" cy="316" r="2" fill="#AFADFF"/>
<circle cx="447" cy="316" r="2" fill="#AFADFF"/>
<circle cx="430" cy="326" r="2" fill="#AFADFF"/>
<circle cx="447" cy="326" r="2" fill="#AFADFF"/>
<circle cx="463" cy="326" r="2" fill="#AFADFF"/>
<circle cx="463" cy="316" r="2" fill="#AFADFF"/>
<circle cx="430" cy="336" r="2" fill="#AFADFF"/>
<circle cx="447" cy="336" r="2" fill="#AFADFF"/>
<circle cx="430" cy="346" r="2" fill="#AFADFF"/>
<circle cx="447" cy="346" r="2" fill="#AFADFF"/>
<circle cx="463" cy="346" r="2" fill="#AFADFF"/>
<circle cx="463" cy="336" r="2" fill="#AFADFF"/>
<circle cx="479" cy="236" r="2" fill="#AFADFF"/>
<circle cx="496" cy="236" r="2" fill="#AFADFF"/>
<circle cx="479" cy="246" r="2" fill="#AFADFF"/>
<circle cx="496" cy="246" r="2" fill="#AFADFF"/>
<circle cx="512" cy="246" r="2" fill="#AFADFF"/>
<circle cx="512" cy="236" r="2" fill="#AFADFF"/>
<circle cx="479" cy="256" r="2" fill="#AFADFF"/>
<circle cx="496" cy="256" r="2" fill="#AFADFF"/>
<circle cx="479" cy="266" r="2" fill="#AFADFF"/>
<circle cx="496" cy="266" r="2" fill="#AFADFF"/>
<circle cx="512" cy="266" r="2" fill="#AFADFF"/>
<circle cx="512" cy="256" r="2" fill="#AFADFF"/>
<circle cx="479" cy="276" r="2" fill="#AFADFF"/>
<circle cx="496" cy="276" r="2" fill="#AFADFF"/>
<circle cx="479" cy="286" r="2" fill="#AFADFF"/>
<circle cx="496" cy="286" r="2" fill="#AFADFF"/>
<circle cx="512" cy="286" r="2" fill="#AFADFF"/>
<circle cx="512" cy="276" r="2" fill="#AFADFF"/>
<circle cx="479" cy="296" r="2" fill="#AFADFF"/>
<circle cx="496" cy="296" r="2" fill="#AFADFF"/>
<circle cx="479" cy="306" r="2" fill="#AFADFF"/>
<circle cx="496" cy="306" r="2" fill="#AFADFF"/>
<circle cx="512" cy="306" r="2" fill="#AFADFF"/>
<circle cx="512" cy="296" r="2" fill="#AFADFF"/>
<circle cx="479" cy="316" r="2" fill="#AFADFF"/>
<circle cx="496" cy="316" r="2" fill="#AFADFF"/>
<circle cx="479" cy="326" r="2" fill="#AFADFF"/>
<circle cx="496" cy="326" r="2" fill="#AFADFF"/>
<circle cx="512" cy="326" r="2" fill="#AFADFF"/>
<circle cx="512" cy="316" r="2" fill="#AFADFF"/>
<circle cx="479" cy="336" r="2" fill="#AFADFF"/>
<circle cx="496" cy="336" r="2" fill="#AFADFF"/>
<circle cx="479" cy="346" r="2" fill="#AFADFF"/>
<circle cx="496" cy="346" r="2" fill="#AFADFF"/>
<circle cx="512" cy="346" r="2" fill="#AFADFF"/>
<circle cx="512" cy="336" r="2" fill="#AFADFF"/>
</svg>
