<svg width="67" height="17" viewBox="0 0 67 17" fill="none" xmlns="http://www.w3.org/2000/svg">
<path d="M0.190937 8.22656C0.190937 7.15234 0.39276 6.14974 0.796406 5.21875C1.20005 4.28125 1.78924 3.46745 2.56398 2.77734C3.33872 2.08724 4.28924 1.54362 5.41555 1.14648C6.54836 0.749349 7.84393 0.550781 9.30227 0.550781C9.82961 0.550781 10.357 0.580078 10.8843 0.638672C11.4182 0.690755 11.9422 0.775391 12.4566 0.892578C12.9774 1.00977 13.482 1.15951 13.9702 1.3418C14.465 1.51758 14.9338 1.72917 15.3765 1.97656L13.9507 4.32031C13.6838 4.16406 13.381 4.02409 13.0425 3.90039C12.704 3.77018 12.3394 3.66276 11.9487 3.57812C11.5646 3.48698 11.1642 3.41862 10.7476 3.37305C10.3374 3.32747 9.92401 3.30469 9.50734 3.30469C8.5438 3.30469 7.68443 3.42839 6.92922 3.67578C6.17401 3.91667 5.53599 4.25846 5.01516 4.70117C4.49432 5.13737 4.09719 5.66146 3.82375 6.27344C3.55031 6.88542 3.41359 7.55599 3.41359 8.28516C3.41359 9.04036 3.55682 9.73372 3.84328 10.3652C4.12974 10.9967 4.53664 11.5404 5.06398 11.9961C5.59133 12.4518 6.22935 12.8099 6.97805 13.0703C7.72674 13.3242 8.56333 13.4512 9.48781 13.4512C10.2235 13.4512 10.8973 13.3698 11.5093 13.207C12.1213 13.0378 12.6551 12.8001 13.1109 12.4941C13.5666 12.1882 13.9377 11.8203 14.2241 11.3906C14.5106 10.9544 14.6994 10.4661 14.7905 9.92578H9.45852V7.37695H17.5737V7.38672L17.5835 7.37695C17.7463 8.1582 17.7951 8.91992 17.73 9.66211C17.6714 10.3978 17.5021 11.0944 17.2222 11.752C16.9487 12.403 16.5711 13.002 16.0894 13.5488C15.6076 14.0957 15.0314 14.5677 14.3609 14.9648C13.6903 15.3555 12.9286 15.6615 12.0757 15.8828C11.2228 16.0977 10.2886 16.2051 9.27297 16.2051C7.8537 16.2051 6.58091 15.9967 5.45461 15.5801C4.33482 15.1634 3.3843 14.5938 2.60305 13.8711C1.8218 13.1484 1.22284 12.3021 0.806171 11.332C0.396015 10.362 0.190937 9.32682 0.190937 8.22656Z" fill="#09608F"/>
<path d="M28.5687 6.8418H31.9261C32.9066 6.8418 33.7581 6.94727 34.4808 7.1582C35.2034 7.36914 35.8011 7.67188 36.2738 8.06641C36.7503 8.45703 37.1038 8.93359 37.3343 9.49609C37.5687 10.0547 37.6859 10.6836 37.6859 11.3828C37.6859 12.0469 37.5706 12.6621 37.3402 13.2285C37.1097 13.791 36.7581 14.2793 36.2855 14.6934C35.8128 15.1035 35.2152 15.4258 34.4925 15.6602C33.7698 15.8906 32.9183 16.0059 31.9378 16.0059L28.5687 16V6.8418ZM32.3831 14.3945C32.9378 14.3945 33.4241 14.3242 33.8421 14.1836C34.2601 14.0391 34.6077 13.8359 34.8851 13.5742C35.1663 13.3125 35.3773 12.9961 35.5179 12.625C35.6585 12.2539 35.7288 11.8398 35.7288 11.3828C35.7288 10.9336 35.6585 10.5293 35.5179 10.1699C35.3773 9.80664 35.1663 9.5 34.8851 9.25C34.6077 8.99609 34.2601 8.80078 33.8421 8.66406C33.4241 8.52734 32.9378 8.45898 32.3831 8.45898H30.4261V14.3945H32.3831ZM43.9242 12.5195C43.9242 12.0508 44.0199 11.6035 44.2113 11.1777C44.4027 10.748 44.6781 10.3691 45.0375 10.041C45.3969 9.71289 45.8363 9.45117 46.3559 9.25586C46.8793 9.06055 47.473 8.96289 48.1371 8.96289C48.7973 8.96289 49.391 9.0625 49.9184 9.26172C50.4496 9.45703 50.8988 9.72656 51.266 10.0703C51.6371 10.4141 51.9203 10.8184 52.1156 11.2832C52.3148 11.748 52.4145 12.2461 52.4145 12.7773C52.4145 12.8438 52.4125 12.916 52.4086 12.9941C52.4086 13.0684 52.4047 13.1367 52.3969 13.1992H45.8578C45.932 13.4062 46.0512 13.5957 46.2152 13.7676C46.3832 13.9395 46.5922 14.0879 46.8422 14.2129C47.0922 14.3379 47.3812 14.4355 47.7094 14.5059C48.0375 14.5723 48.4008 14.6055 48.7992 14.6055C49.1977 14.6055 49.5941 14.5645 49.9887 14.4824C50.3832 14.3965 50.7602 14.2891 51.1195 14.1602L51.7055 15.4844C51.4789 15.5898 51.2484 15.6836 51.0141 15.7656C50.7836 15.8438 50.5414 15.9102 50.2875 15.9648C50.0375 16.0156 49.7738 16.0547 49.4965 16.082C49.223 16.1094 48.934 16.123 48.6293 16.123C47.852 16.123 47.1703 16.0293 46.5844 15.8418C45.9984 15.6543 45.5082 15.3984 45.1137 15.0742C44.7191 14.75 44.4223 14.3691 44.223 13.9316C44.0238 13.4941 43.9242 13.0234 43.9242 12.5195ZM50.5746 11.8457C50.5121 11.6543 50.4145 11.4766 50.2816 11.3125C50.1527 11.1445 49.9906 11 49.7953 10.8789C49.6 10.7539 49.3734 10.6562 49.1156 10.5859C48.8578 10.5156 48.5746 10.4805 48.266 10.4805C47.9379 10.4805 47.6391 10.5176 47.3695 10.5918C47.1 10.666 46.8637 10.7656 46.6605 10.8906C46.4574 11.0156 46.2875 11.1602 46.1508 11.3242C46.018 11.4883 45.9203 11.6621 45.8578 11.8457H50.5746ZM58.2485 9.08008H60.2583L62.0571 13.2402L62.5259 14.4062L62.9946 13.2402L64.7934 9.08008H66.8032L63.5278 16H61.5239L58.2485 9.08008Z" fill="#787878"/>
</svg>
