<svg width="205" height="79" viewBox="0 0 205 79" fill="none" xmlns="http://www.w3.org/2000/svg">
<path d="M13.02 33.28C11.076 33.28 9.36 33.052 7.872 32.596C6.384 32.164 5.184 31.636 4.272 31.012L5.604 27.988C6.108 28.252 6.732 28.54 7.476 28.852C8.22 29.164 9.06 29.428 9.996 29.644C10.932 29.86 11.94 29.968 13.02 29.968C14.388 29.968 15.588 29.704 16.62 29.176C17.652 28.672 18.444 27.916 18.996 26.908C19.572 25.9 19.86 24.676 19.86 23.236V20.644L20.256 20.896C20.136 21.592 19.632 22.288 18.744 22.984C17.88 23.68 16.788 24.256 15.468 24.712C14.148 25.144 12.744 25.36 11.256 25.36C9.216 25.36 7.404 24.94 5.82 24.1C4.236 23.26 3 22.096 2.112 20.608C1.224 19.12 0.78 17.428 0.78 15.532C0.78 13.612 1.248 11.92 2.184 10.456C3.12 8.968 4.404 7.804 6.036 6.964C7.692 6.124 9.576 5.704 11.688 5.704C12.288 5.704 12.972 5.788 13.74 5.956C14.508 6.1 15.288 6.316 16.08 6.604C16.872 6.892 17.616 7.228 18.312 7.612C19.008 7.972 19.56 8.38 19.968 8.836C20.4 9.292 20.628 9.76 20.652 10.24L19.86 10.528V6.1H23.568V22.804C23.568 24.556 23.28 26.092 22.704 27.412C22.152 28.732 21.384 29.824 20.4 30.688C19.44 31.552 18.324 32.2 17.052 32.632C15.78 33.064 14.436 33.28 13.02 33.28ZM12.444 21.94C13.956 21.94 15.276 21.664 16.404 21.112C17.532 20.56 18.408 19.804 19.032 18.844C19.68 17.86 20.004 16.756 20.004 15.532C20.004 14.284 19.68 13.18 19.032 12.22C18.408 11.26 17.532 10.504 16.404 9.952C15.276 9.376 13.956 9.088 12.444 9.088C10.932 9.088 9.576 9.376 8.376 9.952C7.176 10.504 6.24 11.272 5.568 12.256C4.896 13.216 4.56 14.308 4.56 15.532C4.56 16.732 4.896 17.824 5.568 18.808C6.24 19.768 7.176 20.536 8.376 21.112C9.576 21.664 10.932 21.94 12.444 21.94ZM43.0271 25.36C41.4671 25.36 40.0871 25 38.8871 24.28C37.6871 23.536 36.7511 22.48 36.0791 21.112C35.4311 19.72 35.1071 18.088 35.1071 16.216V6.1H38.8151V14.956C38.8151 16.42 39.0191 17.668 39.4271 18.7C39.8351 19.708 40.4591 20.476 41.2991 21.004C42.1631 21.532 43.2431 21.796 44.5391 21.796C45.4511 21.796 46.3031 21.652 47.0951 21.364C47.8871 21.076 48.5831 20.668 49.1831 20.14C49.7831 19.612 50.2511 18.964 50.5871 18.196C50.9471 17.428 51.1271 16.588 51.1271 15.676V6.1H54.8351V25H51.1271V21.04L51.7751 20.608C51.4631 21.376 50.8991 22.132 50.0831 22.876C49.2911 23.596 48.2951 24.196 47.0951 24.676C45.9191 25.132 44.5631 25.36 43.0271 25.36ZM74.0583 25.36C72.0183 25.36 70.1583 25.084 68.4783 24.532C66.7983 23.98 65.3943 23.08 64.2663 21.832L66.7863 19.528C67.6743 20.416 68.7063 21.1 69.8823 21.58C71.0823 22.036 72.4023 22.264 73.8423 22.264C74.4183 22.264 74.9943 22.228 75.5703 22.156C76.1703 22.084 76.7343 21.964 77.2623 21.796C77.7903 21.604 78.2103 21.352 78.5223 21.04C78.8583 20.728 79.0263 20.344 79.0263 19.888C79.0263 19.12 78.4623 18.556 77.3343 18.196C76.7823 18.004 76.1463 17.824 75.4263 17.656C74.7063 17.488 73.9143 17.332 73.0503 17.188C71.6103 16.9 70.3143 16.588 69.1623 16.252C68.0343 15.892 67.0983 15.424 66.3543 14.848C65.8263 14.416 65.4183 13.9 65.1303 13.3C64.8423 12.7 64.6983 11.992 64.6983 11.176C64.6983 10.336 64.9263 9.592 65.3823 8.944C65.8383 8.272 66.4623 7.696 67.2543 7.216C68.0463 6.712 68.9703 6.34 70.0263 6.1C71.1063 5.836 72.2703 5.704 73.5183 5.704C74.5503 5.704 75.6303 5.812 76.7583 6.028C77.9103 6.244 78.9903 6.58 79.9983 7.036C81.0303 7.468 81.8943 8.032 82.5903 8.728L80.5743 11.212C79.9743 10.756 79.2663 10.336 78.4503 9.952C77.6583 9.568 76.8303 9.28 75.9663 9.088C75.1263 8.872 74.3223 8.764 73.5543 8.764C72.9783 8.764 72.3903 8.8 71.7903 8.872C71.1903 8.944 70.6263 9.064 70.0983 9.232C69.5943 9.4 69.1863 9.64 68.8743 9.952C68.5623 10.24 68.4063 10.6 68.4063 11.032C68.4063 11.32 68.4903 11.584 68.6583 11.824C68.8263 12.064 69.0543 12.28 69.3423 12.472C69.8463 12.784 70.5183 13.06 71.3583 13.3C72.2223 13.516 73.1823 13.72 74.2383 13.912C75.5343 14.152 76.7463 14.428 77.8743 14.74C79.0023 15.052 79.9623 15.472 80.7543 16C81.3783 16.408 81.8583 16.888 82.1943 17.44C82.5303 17.968 82.6983 18.604 82.6983 19.348C82.6983 20.62 82.3023 21.712 81.5103 22.624C80.7423 23.512 79.7103 24.196 78.4143 24.676C77.1183 25.132 75.6663 25.36 74.0583 25.36ZM95.2266 25V0.483998H98.9346V25H95.2266ZM89.7546 9.7V6.1H105.415V9.7H89.7546ZM123.327 25.36C121.239 25.36 119.403 24.94 117.819 24.1C116.259 23.236 115.035 22.06 114.147 20.572C113.283 19.084 112.851 17.404 112.851 15.532C112.851 13.612 113.307 11.92 114.219 10.456C115.155 8.968 116.427 7.804 118.035 6.964C119.643 6.124 121.491 5.704 123.579 5.704C124.851 5.704 126.027 5.86 127.107 6.172C128.211 6.484 129.159 6.904 129.951 7.432C130.767 7.96 131.403 8.536 131.859 9.16C132.339 9.784 132.591 10.408 132.615 11.032L131.607 10.996V6.1H135.351V25H131.607V19.996L132.363 20.104C132.339 20.704 132.075 21.316 131.571 21.94C131.067 22.54 130.395 23.104 129.555 23.632C128.715 24.136 127.755 24.556 126.675 24.892C125.619 25.204 124.503 25.36 123.327 25.36ZM124.191 21.94C125.679 21.94 126.987 21.664 128.115 21.112C129.267 20.536 130.155 19.768 130.779 18.808C131.427 17.824 131.751 16.732 131.751 15.532C131.751 14.308 131.427 13.216 130.779 12.256C130.155 11.296 129.267 10.54 128.115 9.988C126.987 9.436 125.679 9.16 124.191 9.16C122.727 9.16 121.419 9.436 120.267 9.988C119.139 10.54 118.251 11.296 117.603 12.256C116.955 13.216 116.631 14.308 116.631 15.532C116.631 16.732 116.955 17.824 117.603 18.808C118.251 19.768 119.139 20.536 120.267 21.112C121.419 21.664 122.727 21.94 124.191 21.94ZM153.208 25L143.236 6.1H147.52L155.332 21.58L154.396 21.904L162.64 6.1H166.708L156.376 25H153.208ZM184.078 25.36C181.798 25.36 179.77 24.94 177.994 24.1C176.242 23.26 174.862 22.096 173.854 20.608C172.87 19.12 172.378 17.428 172.378 15.532C172.378 13.612 172.87 11.92 173.854 10.456C174.862 8.968 176.242 7.804 177.994 6.964C179.77 6.124 181.798 5.704 184.078 5.704C186.358 5.704 188.374 6.124 190.126 6.964C191.878 7.804 193.258 8.968 194.266 10.456C195.274 11.92 195.778 13.612 195.778 15.532C195.778 17.428 195.274 19.12 194.266 20.608C193.258 22.096 191.878 23.26 190.126 24.1C188.374 24.94 186.358 25.36 184.078 25.36ZM184.078 21.976C185.59 21.976 186.946 21.7 188.146 21.148C189.346 20.596 190.294 19.84 190.99 18.88C191.71 17.896 192.046 16.78 191.998 15.532C192.046 14.26 191.71 13.144 190.99 12.184C190.294 11.224 189.346 10.468 188.146 9.916C186.946 9.364 185.59 9.088 184.078 9.088C182.59 9.088 181.234 9.364 180.01 9.916C178.81 10.468 177.862 11.236 177.166 12.22C176.47 13.18 176.134 14.284 176.158 15.532C176.134 16.78 176.47 17.896 177.166 18.88C177.862 19.84 178.81 20.596 180.01 21.148C181.234 21.7 182.59 21.976 184.078 21.976ZM3.444 70V51.1H7.152V56.032L5.964 56.212C6.444 55.3 7.092 54.436 7.908 53.62C8.724 52.78 9.696 52.084 10.824 51.532C11.976 50.98 13.248 50.704 14.64 50.704C16.464 50.704 17.988 51.052 19.212 51.748C20.436 52.42 21.36 53.368 21.984 54.592C22.608 55.792 22.92 57.172 22.92 58.732V70H19.212V59.236C19.212 58.18 18.96 57.268 18.456 56.5C17.976 55.732 17.316 55.144 16.476 54.736C15.66 54.328 14.724 54.124 13.668 54.124C12.708 54.124 11.832 54.292 11.04 54.628C10.248 54.964 9.552 55.408 8.952 55.96C8.376 56.488 7.932 57.076 7.62 57.724C7.308 58.348 7.152 58.972 7.152 59.596V70H5.316C4.764 70 4.332 70 4.02 70C3.708 70 3.516 70 3.444 70ZM44.7886 70.36C42.5086 70.36 40.4806 69.94 38.7046 69.1C36.9526 68.26 35.5726 67.096 34.5646 65.608C33.5806 64.12 33.0886 62.428 33.0886 60.532C33.0886 58.612 33.5806 56.92 34.5646 55.456C35.5726 53.968 36.9526 52.804 38.7046 51.964C40.4806 51.124 42.5086 50.704 44.7886 50.704C47.0686 50.704 49.0846 51.124 50.8366 51.964C52.5886 52.804 53.9686 53.968 54.9766 55.456C55.9846 56.92 56.4886 58.612 56.4886 60.532C56.4886 62.428 55.9846 64.12 54.9766 65.608C53.9686 67.096 52.5886 68.26 50.8366 69.1C49.0846 69.94 47.0686 70.36 44.7886 70.36ZM44.7886 66.976C46.3006 66.976 47.6566 66.7 48.8566 66.148C50.0566 65.596 51.0046 64.84 51.7006 63.88C52.4206 62.896 52.7566 61.78 52.7086 60.532C52.7566 59.26 52.4206 58.144 51.7006 57.184C51.0046 56.224 50.0566 55.468 48.8566 54.916C47.6566 54.364 46.3006 54.088 44.7886 54.088C43.3006 54.088 41.9446 54.364 40.7206 54.916C39.5206 55.468 38.5726 56.236 37.8766 57.22C37.1806 58.18 36.8446 59.284 36.8686 60.532C36.8446 61.78 37.1806 62.896 37.8766 63.88C38.5726 64.84 39.5206 65.596 40.7206 66.148C41.9446 66.7 43.3006 66.976 44.7886 66.976ZM77.9573 70.36C76.8293 70.36 75.7493 70.204 74.7173 69.892C73.6853 69.58 72.7613 69.184 71.9453 68.704C71.1533 68.2 70.4933 67.672 69.9653 67.12C69.4373 66.544 69.1013 66.016 68.9573 65.536L70.4333 65.284V69.892H66.7253V43.36H70.4333V55.42L69.3173 55.348C69.4613 54.844 69.7853 54.328 70.2893 53.8C70.7933 53.272 71.4413 52.78 72.2333 52.324C73.0253 51.844 73.9133 51.46 74.8973 51.172C75.9053 50.86 76.9733 50.704 78.1013 50.704C80.0933 50.704 81.8813 51.124 83.4653 51.964C85.0733 52.804 86.3453 53.956 87.2813 55.42C88.2413 56.884 88.7213 58.576 88.7213 60.496C88.7213 62.392 88.2533 64.084 87.3173 65.572C86.4053 67.06 85.1333 68.236 83.5013 69.1C81.8933 69.94 80.0453 70.36 77.9573 70.36ZM77.5973 66.94C79.0613 66.94 80.3573 66.664 81.4853 66.112C82.6133 65.536 83.5013 64.768 84.1493 63.808C84.7973 62.824 85.1213 61.72 85.1213 60.496C85.1213 59.272 84.7973 58.18 84.1493 57.22C83.5013 56.26 82.6133 55.504 81.4853 54.952C80.3573 54.4 79.0613 54.124 77.5973 54.124C76.1093 54.124 74.7893 54.4 73.6373 54.952C72.5093 55.504 71.6093 56.26 70.9373 57.22C70.2893 58.18 69.9653 59.272 69.9653 60.496C69.9653 61.72 70.2893 62.824 70.9373 63.808C71.6093 64.768 72.5093 65.536 73.6373 66.112C74.7893 66.664 76.1093 66.94 77.5973 66.94ZM98.9284 70V51.1H102.672V57.724L101.772 57.148C102.132 55.972 102.72 54.892 103.536 53.908C104.352 52.924 105.3 52.144 106.38 51.568C107.46 50.992 108.576 50.704 109.728 50.704C110.472 50.704 111.192 50.788 111.888 50.956C112.608 51.1 113.172 51.304 113.58 51.568L112.608 55.456C112.152 55.192 111.588 54.988 110.916 54.844C110.268 54.7 109.656 54.628 109.08 54.628C108.12 54.628 107.244 54.796 106.452 55.132C105.66 55.444 104.976 55.876 104.4 56.428C103.848 56.98 103.416 57.592 103.104 58.264C102.816 58.936 102.672 59.632 102.672 60.352V70H98.9284ZM131.521 70.36C129.193 70.36 127.117 69.952 125.293 69.136C123.469 68.296 122.041 67.156 121.009 65.716C120.001 64.252 119.497 62.596 119.497 60.748C119.497 59.188 119.797 57.796 120.397 56.572C120.997 55.324 121.837 54.268 122.917 53.404C123.997 52.54 125.245 51.868 126.661 51.388C128.101 50.908 129.613 50.668 131.197 50.668C132.685 50.668 134.077 50.896 135.373 51.352C136.669 51.808 137.809 52.444 138.793 53.26C139.777 54.076 140.533 55.048 141.061 56.176C141.613 57.28 141.877 58.504 141.853 59.848L141.817 61.684H122.737L121.909 58.732H138.613L138.073 59.092V58.228C137.953 57.412 137.557 56.692 136.885 56.068C136.213 55.444 135.373 54.964 134.365 54.628C133.381 54.268 132.325 54.088 131.197 54.088C129.661 54.088 128.281 54.304 127.057 54.736C125.857 55.168 124.909 55.852 124.213 56.788C123.517 57.724 123.169 58.96 123.169 60.496C123.169 61.792 123.541 62.932 124.285 63.916C125.053 64.876 126.109 65.62 127.453 66.148C128.821 66.676 130.381 66.94 132.133 66.94C133.813 66.94 135.217 66.712 136.345 66.256C137.497 65.8 138.481 65.296 139.297 64.744L140.989 67.48C140.317 68.008 139.465 68.488 138.433 68.92C137.425 69.352 136.321 69.7 135.121 69.964C133.945 70.228 132.745 70.36 131.521 70.36ZM161.836 78.28C159.892 78.28 158.176 78.052 156.688 77.596C155.2 77.164 154 76.636 153.088 76.012L154.42 72.988C154.924 73.252 155.548 73.54 156.292 73.852C157.036 74.164 157.876 74.428 158.812 74.644C159.748 74.86 160.756 74.968 161.836 74.968C163.204 74.968 164.404 74.704 165.436 74.176C166.468 73.672 167.26 72.916 167.812 71.908C168.388 70.9 168.676 69.676 168.676 68.236V65.644L169.072 65.896C168.952 66.592 168.448 67.288 167.56 67.984C166.696 68.68 165.604 69.256 164.284 69.712C162.964 70.144 161.56 70.36 160.072 70.36C158.032 70.36 156.22 69.94 154.636 69.1C153.052 68.26 151.816 67.096 150.928 65.608C150.04 64.12 149.596 62.428 149.596 60.532C149.596 58.612 150.064 56.92 151 55.456C151.936 53.968 153.22 52.804 154.852 51.964C156.508 51.124 158.392 50.704 160.504 50.704C161.104 50.704 161.788 50.788 162.556 50.956C163.324 51.1 164.104 51.316 164.896 51.604C165.688 51.892 166.432 52.228 167.128 52.612C167.824 52.972 168.376 53.38 168.784 53.836C169.216 54.292 169.444 54.76 169.468 55.24L168.676 55.528V51.1H172.384V67.804C172.384 69.556 172.096 71.092 171.52 72.412C170.968 73.732 170.2 74.824 169.216 75.688C168.256 76.552 167.14 77.2 165.868 77.632C164.596 78.064 163.252 78.28 161.836 78.28ZM161.26 66.94C162.772 66.94 164.092 66.664 165.22 66.112C166.348 65.56 167.224 64.804 167.848 63.844C168.496 62.86 168.82 61.756 168.82 60.532C168.82 59.284 168.496 58.18 167.848 57.22C167.224 56.26 166.348 55.504 165.22 54.952C164.092 54.376 162.772 54.088 161.26 54.088C159.748 54.088 158.392 54.376 157.192 54.952C155.992 55.504 155.056 56.272 154.384 57.256C153.712 58.216 153.376 59.308 153.376 60.532C153.376 61.732 153.712 62.824 154.384 63.808C155.056 64.768 155.992 65.536 157.192 66.112C158.392 66.664 159.748 66.94 161.26 66.94ZM192.269 70.36C190.181 70.36 188.345 69.94 186.761 69.1C185.201 68.236 183.977 67.06 183.089 65.572C182.225 64.084 181.793 62.404 181.793 60.532C181.793 58.612 182.249 56.92 183.161 55.456C184.097 53.968 185.369 52.804 186.977 51.964C188.585 51.124 190.433 50.704 192.521 50.704C193.793 50.704 194.969 50.86 196.049 51.172C197.153 51.484 198.101 51.904 198.893 52.432C199.709 52.96 200.345 53.536 200.801 54.16C201.281 54.784 201.533 55.408 201.557 56.032L200.549 55.996V51.1H204.293V70H200.549V64.996L201.305 65.104C201.281 65.704 201.017 66.316 200.513 66.94C200.009 67.54 199.337 68.104 198.497 68.632C197.657 69.136 196.697 69.556 195.617 69.892C194.561 70.204 193.445 70.36 192.269 70.36ZM193.133 66.94C194.621 66.94 195.929 66.664 197.057 66.112C198.209 65.536 199.097 64.768 199.721 63.808C200.369 62.824 200.693 61.732 200.693 60.532C200.693 59.308 200.369 58.216 199.721 57.256C199.097 56.296 198.209 55.54 197.057 54.988C195.929 54.436 194.621 54.16 193.133 54.16C191.669 54.16 190.361 54.436 189.209 54.988C188.081 55.54 187.193 56.296 186.545 57.256C185.897 58.216 185.573 59.308 185.573 60.532C185.573 61.732 185.897 62.824 186.545 63.808C187.193 64.768 188.081 65.536 189.209 66.112C190.361 66.664 191.669 66.94 193.133 66.94Z" fill="white"/>
</svg>
